<?xml version="1.0" encoding="UTF-8" standalone="no"?><svg xmlns="http://www.w3.org/2000/svg" xmlns:xlink="http://www.w3.org/1999/xlink" height="452" version="1.1" width="676"><defs/><g><g transform="translate(-78,-38) scale(1,1)"><rect fill="#C0C0C0" height="304" opacity="0.2" stroke="none" width="504" x="247" y="55"/></g><g transform="translate(-78,-38) scale(1,1)"><rect fill="#ffe0e0" height="304" stroke="none" width="504" x="240" y="48"/></g><g transform="translate(-78,-38) scale(1,1)"><path d="M 240 48 L 744 48 L 744 352 L 240 352 L 240 48 Z Z" fill="none" stroke="#000000" stroke-miterlimit="10"/></g><g transform="translate(-78,-38) scale(1,1)"><g><path fill="none" stroke="none"/><text fill="#000000" font-family="Arial" font-size="24px" font-style="normal" font-weight="bold" stroke="none" text-decoration="none" x="448.65234375" y="78.5">Sistema</text></g></g><g transform="translate(-78,-38) scale(1,1)"><path d="M 128.58836363636362 220.57 C 128.58836363636362 214.180064864 133.69752669323637 209 140 209 C 146.30247330676363 209 151.41163636363638 214.180064864 151.41163636363638 220.57 C 151.41163636363638 226.95993513599998 146.30247330676363 232.14 140 232.14 C 133.69752669323637 232.14 128.58836363636362 226.95993513599998 128.58836363636362 220.57 Z" fill="#ffffff" stroke="none"/></g><g transform="translate(-78,-38) scale(1,1)"><path d="M 128.58836363636362 220.57 C 128.58836363636362 214.180064864 133.69752669323637 209 140 209 C 146.30247330676363 209 151.41163636363638 214.180064864 151.41163636363638 220.57 C 151.41163636363638 226.95993513599998 146.30247330676363 232.14 140 232.14 C 133.69752669323637 232.14 128.58836363636362 226.95993513599998 128.58836363636362 220.57 Z" fill="none" stroke="#000000" stroke-miterlimit="10"/></g><g transform="translate(-78,-38) scale(1,1)"><path d="M 140 232.14 L 140 254.86" fill="none" stroke="#000000" stroke-miterlimit="10"/></g><g transform="translate(-78,-38) scale(1,1)"><path d="M 127.91709090909092 240.66 L 152.08290909090908 240.66" fill="none" stroke="#000000" stroke-miterlimit="10"/></g><g transform="translate(-78,-38) scale(1,1)"><path d="M 140 254.86 L 123.21818181818182 278" fill="none" stroke="#000000" stroke-miterlimit="10"/></g><g transform="translate(-78,-38) scale(1,1)"><path d="M 140 254.86 L 156.78181818181818 278" fill="none" stroke="#000000" stroke-miterlimit="10"/></g><g transform="translate(-78,-38) scale(1,1)"><g><path fill="none" stroke="none"/><text fill="#000000" font-family="Arial" font-size="13px" font-style="normal" font-weight="bold" stroke="none" text-decoration="none" x="120.84912109375" y="298.5">Utente</text></g></g><g transform="translate(-78,-38) scale(1,1)"><path d="M 399 171 C 399 151.1177472 445.5623808 135 503 135 C 560.4376192 135 607 151.1177472 607 171 C 607 190.8822528 560.4376192 207 503 207 C 445.5623808 207 399 190.8822528 399 171 Z" fill="#C0C0C0" opacity="0.2" stroke="none"/></g><g transform="translate(-78,-38) scale(1,1)"><path d="M 392 164 C 392 144.1177472 438.5623808 128 496 128 C 553.4376192 128 600 144.1177472 600 164 C 600 183.8822528 553.4376192 200 496 200 C 438.5623808 200 392 183.8822528 392 164 Z" fill="#ffffff" stroke="none"/></g><g transform="translate(-78,-38) scale(1,1)"><path d="M 392 164 C 392 144.1177472 438.5623808 128 496 128 C 553.4376192 128 600 144.1177472 600 164 C 600 183.8822528 553.4376192 200 496 200 C 438.5623808 200 392 183.8822528 392 164 Z" fill="none" stroke="#000000" stroke-miterlimit="10"/></g><g transform="translate(-78,-38) scale(1,1)"><g><path fill="none" stroke="none"/><text fill="#000000" font-family="Arial" font-size="16px" font-style="normal" font-weight="bold" stroke="none" text-decoration="none" x="459.98828125" y="172.5">Si registra</text></g></g><g transform="translate(-78,-38) scale(1,1)"><path d="M 193 242 L 391 191" fill="none" stroke="#000000" stroke-miterlimit="10"/></g><g transform="translate(-78,-38) scale(1,1)"><path d="M 271 302.5 C 271 285.1030288 315.77152 271 371 271 C 426.22848 271 471 285.1030288 471 302.5 C 471 319.8969712 426.22848 334 371 334 C 315.77152 334 271 319.8969712 271 302.5 Z" fill="#C0C0C0" opacity="0.2" stroke="none"/></g><g transform="translate(-78,-38) scale(1,1)"><path d="M 264 295.5 C 264 278.1030288 308.77152 264 364 264 C 419.22848 264 464 278.1030288 464 295.5 C 464 312.8969712 419.22848 327 364 327 C 308.77152 327 264 312.8969712 264 295.5 Z" fill="#ffffff" stroke="none"/></g><g transform="translate(-78,-38) scale(1,1)"><path d="M 264 295.5 C 264 278.1030288 308.77152 264 364 264 C 419.22848 264 464 278.1030288 464 295.5 C 464 312.8969712 419.22848 327 364 327 C 308.77152 327 264 312.8969712 264 295.5 Z" fill="none" stroke="#000000" stroke-miterlimit="10"/></g><g transform="translate(-78,-38) scale(1,1)"><g><path fill="none" stroke="none"/><text fill="#000000" font-family="Arial" font-size="16px" font-style="normal" font-weight="bold" stroke="none" text-decoration="none" x="311.51953125" y="296">Autenticazione</text><text fill="#000000" font-family="Arial" font-size="16px" font-style="normal" font-weight="bold" stroke="none" text-decoration="none" x="323.08203125" y="312">con Google</text></g></g><g transform="translate(-78,-38) scale(1,1)"><path d="M 396 263 L 459 201" fill="none" stroke="#000000" stroke-miterlimit="10"/></g><g transform="translate(-78,-38) scale(1,1)"><path d="M 450.41863628949125 221.2573492063489 L 459 201 L 438.6079505357979 209.25616852114433" fill="#FFFFFF" stroke="none"/></g><g transform="translate(-78,-38) scale(1,1)"><path d="M 450.41863628949125 221.2573492063489 L 459 201 L 438.6079505357979 209.25616852114433 L 450.41863628949125 221.2573492063489" fill="none" stroke="#000000" stroke-miterlimit="10"/></g><g transform="translate(-78,-38) scale(1,1)"><path d="M 519 301.5 C 519 284.6553136 565.5623808 271 623 271 C 680.4376192 271 727 284.6553136 727 301.5 C 727 318.3446864 680.4376192 332 623 332 C 565.5623808 332 519 318.3446864 519 301.5 Z" fill="#C0C0C0" opacity="0.2" stroke="none"/></g><g transform="translate(-78,-38) scale(1,1)"><path d="M 512 294.5 C 512 277.6553136 558.5623808 264 616 264 C 673.4376192 264 720 277.6553136 720 294.5 C 720 311.3446864 673.4376192 325 616 325 C 558.5623808 325 512 311.3446864 512 294.5 Z" fill="#ffffff" stroke="none"/></g><g transform="translate(-78,-38) scale(1,1)"><path d="M 512 294.5 C 512 277.6553136 558.5623808 264 616 264 C 673.4376192 264 720 277.6553136 720 294.5 C 720 311.3446864 673.4376192 325 616 325 C 558.5623808 325 512 311.3446864 512 294.5 Z" fill="none" stroke="#000000" stroke-miterlimit="10"/></g><g transform="translate(-78,-38) scale(1,1)"><g><path fill="none" stroke="none"/><text fill="#000000" font-family="Arial" font-size="16px" font-style="normal" font-weight="bold" stroke="none" text-decoration="none" x="563.51953125" y="295">Autenticazione</text><text fill="#000000" font-family="Arial" font-size="16px" font-style="normal" font-weight="bold" stroke="none" text-decoration="none" x="565.74609375" y="311">con Facebook</text></g></g><g transform="translate(-78,-38) scale(1,1)"><path d="M 587 263 L 530 201" fill="none" stroke="#000000" stroke-miterlimit="10"/></g><g transform="translate(-78,-38) scale(1,1)"><path d="M 549.9540029756516 210.26486725472554 L 530 201 L 537.5583603532903 221.66086127850946" fill="#FFFFFF" stroke="none"/></g><g transform="translate(-78,-38) scale(1,1)"><path d="M 549.9540029756516 210.26486725472554 L 530 201 L 537.5583603532903 221.66086127850946 L 549.9540029756516 210.26486725472554" fill="none" stroke="#000000" stroke-miterlimit="10"/></g><g transform="translate(-78,-38) scale(1,1)"><path d="M 352.5883636363637 396.57 C 352.5883636363637 390.180064864 357.6975266932364 385 364 385 C 370.3024733067636 385 375.4116363636363 390.180064864 375.4116363636363 396.57 C 375.4116363636363 402.959935136 370.3024733067636 408.14 364 408.14 C 357.6975266932364 408.14 352.5883636363637 402.959935136 352.5883636363637 396.57 Z" fill="#ffffff" stroke="none"/></g><g transform="translate(-78,-38) scale(1,1)"><path d="M 352.5883636363637 396.57 C 352.5883636363637 390.180064864 357.6975266932364 385 364 385 C 370.3024733067636 385 375.4116363636363 390.180064864 375.4116363636363 396.57 C 375.4116363636363 402.959935136 370.3024733067636 408.14 364 408.14 C 357.6975266932364 408.14 352.5883636363637 402.959935136 352.5883636363637 396.57 Z" fill="none" stroke="#000000" stroke-miterlimit="10"/></g><g transform="translate(-78,-38) scale(1,1)"><path d="M 364 408.14 L 364 430.86" fill="none" stroke="#000000" stroke-miterlimit="10"/></g><g transform="translate(-78,-38) scale(1,1)"><path d="M 351.9170909090909 416.65999999999997 L 376.0829090909091 416.65999999999997" fill="none" stroke="#000000" stroke-miterlimit="10"/></g><g transform="translate(-78,-38) scale(1,1)"><path d="M 364 430.86 L 347.21818181818185 454" fill="none" stroke="#000000" stroke-miterlimit="10"/></g><g transform="translate(-78,-38) scale(1,1)"><path d="M 364 430.86 L 380.78181818181815 454" fill="none" stroke="#000000" stroke-miterlimit="10"/></g><g transform="translate(-78,-38) scale(1,1)"><g><path fill="none" stroke="none"/><text fill="#000000" font-family="Arial" font-size="13px" font-style="normal" font-weight="bold" stroke="none" text-decoration="none" x="330.75732421875" y="474.5">API Google</text></g></g><g transform="translate(-78,-38) scale(1,1)"><path d="M 364 383 L 364 328" fill="none" stroke="#000000" stroke-miterlimit="10"/></g><g transform="translate(-78,-38) scale(1,1)"><path d="M 604.5883636363636 396.57 C 604.5883636363636 390.180064864 609.6975266932363 385 616 385 C 622.3024733067637 385 627.4116363636364 390.180064864 627.4116363636364 396.57 C 627.4116363636364 402.959935136 622.3024733067637 408.14 616 408.14 C 609.6975266932363 408.14 604.5883636363636 402.959935136 604.5883636363636 396.57 Z" fill="#ffffff" stroke="none"/></g><g transform="translate(-78,-38) scale(1,1)"><path d="M 604.5883636363636 396.57 C 604.5883636363636 390.180064864 609.6975266932363 385 616 385 C 622.3024733067637 385 627.4116363636364 390.180064864 627.4116363636364 396.57 C 627.4116363636364 402.959935136 622.3024733067637 408.14 616 408.14 C 609.6975266932363 408.14 604.5883636363636 402.959935136 604.5883636363636 396.57 Z" fill="none" stroke="#000000" stroke-miterlimit="10"/></g><g transform="translate(-78,-38) scale(1,1)"><path d="M 616 408.14 L 616 430.86" fill="none" stroke="#000000" stroke-miterlimit="10"/></g><g transform="translate(-78,-38) scale(1,1)"><path d="M 603.9170909090909 416.65999999999997 L 628.0829090909091 416.65999999999997" fill="none" stroke="#000000" stroke-miterlimit="10"/></g><g transform="translate(-78,-38) scale(1,1)"><path d="M 616 430.86 L 599.2181818181818 454" fill="none" stroke="#000000" stroke-miterlimit="10"/></g><g transform="translate(-78,-38) scale(1,1)"><path d="M 616 430.86 L 632.7818181818182 454" fill="none" stroke="#000000" stroke-miterlimit="10"/></g><g transform="translate(-78,-38) scale(1,1)"><g><path fill="none" stroke="none"/><text fill="#000000" font-family="Arial" font-size="13px" font-style="normal" font-weight="bold" stroke="none" text-decoration="none" x="575.171875" y="474.5">API Facebook</text></g></g><g transform="translate(-78,-38) scale(1,1)"><path d="M 616 326 L 616 383" fill="none" stroke="#000000" stroke-miterlimit="10"/></g></g></svg>