<?xml version="1.0" encoding="UTF-8" standalone="no"?><svg xmlns="http://www.w3.org/2000/svg" xmlns:xlink="http://www.w3.org/1999/xlink" height="1372" version="1.1" width="524"><defs/><g><g transform="translate(-54,-22) scale(1,1)"><rect fill="#C0C0C0" height="1352" opacity="0.2" stroke="none" width="304" x="271" y="39"/></g><g transform="translate(-54,-22) scale(1,1)"><rect fill="#ffe0e0" height="1352" stroke="none" width="304" x="264" y="32"/></g><g transform="translate(-54,-22) scale(1,1)"><path d="M 264 32 L 568 32 L 568 1384 L 264 1384 L 264 32 Z Z" fill="none" stroke="#000000" stroke-miterlimit="10"/></g><g transform="translate(-54,-22) scale(1,1)"><g><path fill="none" stroke="none"/><text fill="#000000" font-family="Arial" font-size="24px" font-style="normal" font-weight="bold" stroke="none" text-decoration="none" x="372.65234375" y="62.5">Sistema</text></g></g><g transform="translate(-54,-22) scale(1,1)"><path d="M 112.58836363636364 220.57 C 112.58836363636364 214.180064864 117.69752669323636 209 124 209 C 130.30247330676363 209 135.41163636363638 214.180064864 135.41163636363638 220.57 C 135.41163636363638 226.95993513599998 130.30247330676363 232.14 124 232.14 C 117.69752669323636 232.14 112.58836363636364 226.95993513599998 112.58836363636364 220.57 Z" fill="#ffffff" stroke="none"/></g><g transform="translate(-54,-22) scale(1,1)"><path d="M 112.58836363636364 220.57 C 112.58836363636364 214.180064864 117.69752669323636 209 124 209 C 130.30247330676363 209 135.41163636363638 214.180064864 135.41163636363638 220.57 C 135.41163636363638 226.95993513599998 130.30247330676363 232.14 124 232.14 C 117.69752669323636 232.14 112.58836363636364 226.95993513599998 112.58836363636364 220.57 Z" fill="none" stroke="#000000" stroke-miterlimit="10"/></g><g transform="translate(-54,-22) scale(1,1)"><path d="M 124 232.14 L 124 254.86" fill="none" stroke="#000000" stroke-miterlimit="10"/></g><g transform="translate(-54,-22) scale(1,1)"><path d="M 111.91709090909092 240.66 L 136.08290909090908 240.66" fill="none" stroke="#000000" stroke-miterlimit="10"/></g><g transform="translate(-54,-22) scale(1,1)"><path d="M 124 254.86 L 107.21818181818182 278" fill="none" stroke="#000000" stroke-miterlimit="10"/></g><g transform="translate(-54,-22) scale(1,1)"><path d="M 124 254.86 L 140.78181818181818 278" fill="none" stroke="#000000" stroke-miterlimit="10"/></g><g transform="translate(-54,-22) scale(1,1)"><g><path fill="none" stroke="none"/><text fill="#000000" font-family="Arial" font-size="13px" font-style="normal" font-weight="bold" stroke="none" text-decoration="none" x="104.84912109375" y="298.5">Utente</text></g></g><g transform="translate(-54,-22) scale(1,1)"><path d="M 311 179 C 311 159.1177472 361.1441024 143 423 143 C 484.8558976 143 535 159.1177472 535 179 C 535 198.8822528 484.8558976 215 423 215 C 361.1441024 215 311 198.8822528 311 179 Z" fill="#C0C0C0" opacity="0.2" stroke="none"/></g><g transform="translate(-54,-22) scale(1,1)"><path d="M 304 172 C 304 152.1177472 354.1441024 136 416 136 C 477.8558976 136 528 152.1177472 528 172 C 528 191.8822528 477.8558976 208 416 208 C 354.1441024 208 304 191.8822528 304 172 Z" fill="#ffffff" stroke="none"/></g><g transform="translate(-54,-22) scale(1,1)"><path d="M 304 172 C 304 152.1177472 354.1441024 136 416 136 C 477.8558976 136 528 152.1177472 528 172 C 528 191.8822528 477.8558976 208 416 208 C 354.1441024 208 304 191.8822528 304 172 Z" fill="none" stroke="#000000" stroke-miterlimit="10"/></g><g transform="translate(-54,-22) scale(1,1)"><g><path fill="none" stroke="none"/><text fill="#000000" font-family="Arial" font-size="16px" font-style="normal" font-weight="bold" stroke="none" text-decoration="none" x="379.98828125" y="180.5">Si registra</text></g></g><g transform="translate(-54,-22) scale(1,1)"><path d="M 113.78880308948864 740.5699999999999 C 113.78880308948864 734.180064864 118.89796614636136 729 125.200439453125 729 C 131.50291275988863 729 136.61207581676138 734.180064864 136.61207581676138 740.5699999999999 C 136.61207581676138 746.9599351359999 131.50291275988863 752.14 125.200439453125 752.14 C 118.89796614636136 752.14 113.78880308948864 746.9599351359999 113.78880308948864 740.5699999999999 Z" fill="#ffffff" stroke="none"/></g><g transform="translate(-54,-22) scale(1,1)"><path d="M 113.78880308948864 740.5699999999999 C 113.78880308948864 734.180064864 118.89796614636136 729 125.200439453125 729 C 131.50291275988863 729 136.61207581676138 734.180064864 136.61207581676138 740.5699999999999 C 136.61207581676138 746.9599351359999 131.50291275988863 752.14 125.200439453125 752.14 C 118.89796614636136 752.14 113.78880308948864 746.9599351359999 113.78880308948864 740.5699999999999 Z" fill="none" stroke="#000000" stroke-miterlimit="10"/></g><g transform="translate(-54,-22) scale(1,1)"><path d="M 125.200439453125 752.14 L 125.200439453125 774.86" fill="none" stroke="#000000" stroke-miterlimit="10"/></g><g transform="translate(-54,-22) scale(1,1)"><path d="M 113.11753036221592 760.66 L 137.28334854403408 760.66" fill="none" stroke="#000000" stroke-miterlimit="10"/></g><g transform="translate(-54,-22) scale(1,1)"><path d="M 125.200439453125 774.86 L 108.41862127130682 798" fill="none" stroke="#000000" stroke-miterlimit="10"/></g><g transform="translate(-54,-22) scale(1,1)"><path d="M 125.200439453125 774.86 L 141.98225763494318 798" fill="none" stroke="#000000" stroke-miterlimit="10"/></g><g transform="translate(-54,-22) scale(1,1)"><g><path fill="none" stroke="none"/><text fill="#000000" font-family="Arial" font-size="13px" font-style="normal" font-weight="bold" stroke="none" text-decoration="none" x="72.44189453125" y="818.5">Utente autenticato</text></g></g><g transform="translate(-54,-22) scale(1,1)"><path d="M 177 241 L 303 205" fill="none" stroke="#000000" stroke-miterlimit="10"/></g><g transform="translate(-54,-22) scale(1,1)"><path d="M 311 398.5 C 311 372.266472 358.9055264 351 418 351 C 477.0944736 351 525 372.266472 525 398.5 C 525 424.733528 477.0944736 446 418 446 C 358.9055264 446 311 424.733528 311 398.5 Z" fill="#C0C0C0" opacity="0.2" stroke="none"/></g><g transform="translate(-54,-22) scale(1,1)"><path d="M 304 391.5 C 304 365.266472 351.9055264 344 411 344 C 470.0944736 344 518 365.266472 518 391.5 C 518 417.733528 470.0944736 439 411 439 C 351.9055264 439 304 417.733528 304 391.5 Z" fill="#ffffff" stroke="none"/></g><g transform="translate(-54,-22) scale(1,1)"><path d="M 304 391.5 C 304 365.266472 351.9055264 344 411 344 C 470.0944736 344 518 365.266472 518 391.5 C 518 417.733528 470.0944736 439 411 439 C 351.9055264 439 304 417.733528 304 391.5 Z" fill="none" stroke="#000000" stroke-miterlimit="10"/></g><g transform="translate(-54,-22) scale(1,1)"><g><path fill="none" stroke="none"/><text fill="#000000" font-family="Arial" font-size="16px" font-style="normal" font-weight="bold" stroke="none" text-decoration="none" x="346.0859375" y="400">Inserisce itinerario</text></g></g><g transform="translate(-54,-22) scale(1,1)"><path d="M 311 846.5 C 311 824.6847504 361.1441024 807 423 807 C 484.8558976 807 535 824.6847504 535 846.5 C 535 868.3152496 484.8558976 886 423 886 C 361.1441024 886 311 868.3152496 311 846.5 Z" fill="#C0C0C0" opacity="0.2" stroke="none"/></g><g transform="translate(-54,-22) scale(1,1)"><path d="M 304 839.5 C 304 817.6847504 354.1441024 800 416 800 C 477.8558976 800 528 817.6847504 528 839.5 C 528 861.3152496 477.8558976 879 416 879 C 354.1441024 879 304 861.3152496 304 839.5 Z" fill="#ffffff" stroke="none"/></g><g transform="translate(-54,-22) scale(1,1)"><path d="M 304 839.5 C 304 817.6847504 354.1441024 800 416 800 C 477.8558976 800 528 817.6847504 528 839.5 C 528 861.3152496 477.8558976 879 416 879 C 354.1441024 879 304 861.3152496 304 839.5 Z" fill="none" stroke="#000000" stroke-miterlimit="10"/></g><g transform="translate(-54,-22) scale(1,1)"><g><path fill="none" stroke="none"/><text fill="#000000" font-family="Arial" font-size="16px" font-style="normal" font-weight="bold" stroke="none" text-decoration="none" x="356.1171875" y="840">Visualizza profilo</text><text fill="#000000" font-family="Arial" font-size="16px" font-style="normal" font-weight="bold" stroke="none" text-decoration="none" x="393.7578125" y="856">utente</text></g></g><g transform="translate(-54,-22) scale(1,1)"><path d="M 311 716 C 311 686.7289056 361.1441024 663 423 663 C 484.8558976 663 535 686.7289056 535 716 C 535 745.2710944 484.8558976 769 423 769 C 361.1441024 769 311 745.2710944 311 716 Z" fill="#C0C0C0" opacity="0.2" stroke="none"/></g><g transform="translate(-54,-22) scale(1,1)"><path d="M 304 709 C 304 679.7289056 354.1441024 656 416 656 C 477.8558976 656 528 679.7289056 528 709 C 528 738.2710944 477.8558976 762 416 762 C 354.1441024 762 304 738.2710944 304 709 Z" fill="#ffffff" stroke="none"/></g><g transform="translate(-54,-22) scale(1,1)"><path d="M 304 709 C 304 679.7289056 354.1441024 656 416 656 C 477.8558976 656 528 679.7289056 528 709 C 528 738.2710944 477.8558976 762 416 762 C 354.1441024 762 304 738.2710944 304 709 Z" fill="none" stroke="#000000" stroke-miterlimit="10"/></g><g transform="translate(-54,-22) scale(1,1)"><g><path fill="none" stroke="none"/><text fill="#000000" font-family="Arial" font-size="16px" font-style="normal" font-weight="bold" stroke="none" text-decoration="none" x="386.640625" y="693.5">Segnala</text><text fill="#000000" font-family="Arial" font-size="16px" font-style="normal" font-weight="bold" stroke="none" text-decoration="none" x="372.87109375" y="709.5">informazioni</text><text fill="#000000" font-family="Arial" font-size="16px" font-style="normal" font-weight="bold" stroke="none" text-decoration="none" x="368.41015625" y="725.5">inesatte di un</text><text fill="#000000" font-family="Arial" font-size="16px" font-style="normal" font-weight="bold" stroke="none" text-decoration="none" x="385.3203125" y="741.5">itinerario</text></g></g><g transform="translate(-54,-22) scale(1,1)"><path d="M 121.12742613636364 1244.5700000000002 C 121.12742613636364 1238.180064864 126.23658919323636 1233 132.5390625 1233 C 138.84153580676363 1233 143.95069886363638 1238.180064864 143.95069886363638 1244.5700000000002 C 143.95069886363638 1250.9599351360002 138.84153580676363 1256.14 132.5390625 1256.14 C 126.23658919323636 1256.14 121.12742613636364 1250.9599351360002 121.12742613636364 1244.5700000000002 Z" fill="#ffffff" stroke="none"/></g><g transform="translate(-54,-22) scale(1,1)"><path d="M 121.12742613636364 1244.5700000000002 C 121.12742613636364 1238.180064864 126.23658919323636 1233 132.5390625 1233 C 138.84153580676363 1233 143.95069886363638 1238.180064864 143.95069886363638 1244.5700000000002 C 143.95069886363638 1250.9599351360002 138.84153580676363 1256.14 132.5390625 1256.14 C 126.23658919323636 1256.14 121.12742613636364 1250.9599351360002 121.12742613636364 1244.5700000000002 Z" fill="none" stroke="#000000" stroke-miterlimit="10"/></g><g transform="translate(-54,-22) scale(1,1)"><path d="M 132.5390625 1256.14 L 132.5390625 1278.86" fill="none" stroke="#000000" stroke-miterlimit="10"/></g><g transform="translate(-54,-22) scale(1,1)"><path d="M 120.45615340909092 1264.66 L 144.62197159090908 1264.66" fill="none" stroke="#000000" stroke-miterlimit="10"/></g><g transform="translate(-54,-22) scale(1,1)"><path d="M 132.5390625 1278.86 L 115.75724431818182 1302" fill="none" stroke="#000000" stroke-miterlimit="10"/></g><g transform="translate(-54,-22) scale(1,1)"><path d="M 132.5390625 1278.86 L 149.32088068181818 1302" fill="none" stroke="#000000" stroke-miterlimit="10"/></g><g transform="translate(-54,-22) scale(1,1)"><g><path fill="none" stroke="none"/><text fill="#000000" font-family="Arial" font-size="13px" font-style="normal" font-weight="bold" stroke="none" text-decoration="none" x="88.83544921875" y="1322.5">Amministratore</text></g></g><g transform="translate(-54,-22) scale(1,1)"><path d="M 303 1286.5 C 303 1264.6847504 356.725824 1247 423 1247 C 489.274176 1247 543 1264.6847504 543 1286.5 C 543 1308.3152496 489.274176 1326 423 1326 C 356.725824 1326 303 1308.3152496 303 1286.5 Z" fill="#C0C0C0" opacity="0.2" stroke="none"/></g><g transform="translate(-54,-22) scale(1,1)"><path d="M 296 1279.5 C 296 1257.6847504 349.725824 1240 416 1240 C 482.274176 1240 536 1257.6847504 536 1279.5 C 536 1301.3152496 482.274176 1319 416 1319 C 349.725824 1319 296 1301.3152496 296 1279.5 Z" fill="#ffffff" stroke="none"/></g><g transform="translate(-54,-22) scale(1,1)"><path d="M 296 1279.5 C 296 1257.6847504 349.725824 1240 416 1240 C 482.274176 1240 536 1257.6847504 536 1279.5 C 536 1301.3152496 482.274176 1319 416 1319 C 349.725824 1319 296 1301.3152496 296 1279.5 Z" fill="none" stroke="#000000" stroke-miterlimit="10"/></g><g transform="translate(-54,-22) scale(1,1)"><g><path fill="none" stroke="none"/><text fill="#000000" font-family="Arial" font-size="16px" font-style="normal" font-weight="bold" stroke="none" text-decoration="none" x="342.3359375" y="1288">Visualizza statistiche</text></g></g><g transform="translate(-54,-22) scale(1,1)"><path d="M 161 727 L 375 440" fill="none" stroke="#000000" stroke-miterlimit="10"/></g><g transform="translate(-54,-22) scale(1,1)"><path d="M 303 735 L 187 762" fill="none" stroke="#000000" stroke-miterlimit="10"/></g><g transform="translate(-54,-22) scale(1,1)"><path d="M 303 815 L 187 790" fill="none" stroke="#000000" stroke-miterlimit="10"/></g><g transform="translate(-54,-22) scale(1,1)"><path d="M 295 1279 L 186 1280" fill="none" stroke="#000000" stroke-miterlimit="10"/></g><g transform="translate(-54,-22) scale(1,1)"><path d="M 311 976.5 C 311 953.5801808 361.1441024 935 423 935 C 484.8558976 935 535 953.5801808 535 976.5 C 535 999.4198192 484.8558976 1018 423 1018 C 361.1441024 1018 311 999.4198192 311 976.5 Z" fill="#C0C0C0" opacity="0.2" stroke="none"/></g><g transform="translate(-54,-22) scale(1,1)"><path d="M 304 969.5 C 304 946.5801808 354.1441024 928 416 928 C 477.8558976 928 528 946.5801808 528 969.5 C 528 992.4198192 477.8558976 1011 416 1011 C 354.1441024 1011 304 992.4198192 304 969.5 Z" fill="#ffffff" stroke="none"/></g><g transform="translate(-54,-22) scale(1,1)"><path d="M 304 969.5 C 304 946.5801808 354.1441024 928 416 928 C 477.8558976 928 528 946.5801808 528 969.5 C 528 992.4198192 477.8558976 1011 416 1011 C 354.1441024 1011 304 992.4198192 304 969.5 Z" fill="none" stroke="#000000" stroke-miterlimit="10"/></g><g transform="translate(-54,-22) scale(1,1)"><g><path fill="none" stroke="none"/><text fill="#000000" font-family="Arial" font-size="16px" font-style="normal" font-weight="bold" stroke="none" text-decoration="none" x="350.62890625" y="970">Manda messaggio</text><text fill="#000000" font-family="Arial" font-size="16px" font-style="normal" font-weight="bold" stroke="none" text-decoration="none" x="391.98828125" y="986">privato</text></g></g><g transform="translate(-54,-22) scale(1,1)"><path d="M 187 817 L 353 927" fill="none" stroke="#000000" stroke-miterlimit="10"/></g><g transform="translate(-54,-22) scale(1,1)"><path d="M 319 272 C 319 262.6111584 361.9806592 255 415 255 C 468.0193408 255 511 262.6111584 511 272 C 511 281.3888416 468.0193408 289 415 289 C 361.9806592 289 319 281.3888416 319 272 Z" fill="#C0C0C0" opacity="0.2" stroke="none"/></g><g transform="translate(-54,-22) scale(1,1)"><path d="M 312 265 C 312 255.6111584 354.9806592 248 408 248 C 461.0193408 248 504 255.6111584 504 265 C 504 274.3888416 461.0193408 282 408 282 C 354.9806592 282 312 274.3888416 312 265 Z" fill="#ffffff" stroke="none"/></g><g transform="translate(-54,-22) scale(1,1)"><path d="M 312 265 C 312 255.6111584 354.9806592 248 408 248 C 461.0193408 248 504 255.6111584 504 265 C 504 274.3888416 461.0193408 282 408 282 C 354.9806592 282 312 274.3888416 312 265 Z" fill="none" stroke="#000000" stroke-miterlimit="10"/></g><g transform="translate(-54,-22) scale(1,1)"><g><path fill="none" stroke="none"/><text fill="#000000" font-family="Arial" font-size="13px" font-style="normal" font-weight="bold" stroke="none" text-decoration="none" x="377.65185546875" y="272">UseCase2</text></g></g><g transform="translate(-54,-22) scale(1,1)"><path d="M 177 258 L 311 262" fill="none" stroke="#000000" stroke-miterlimit="10"/></g><g transform="translate(-54,-22) scale(1,1)"><rect fill="#C0C0C0" height="15" opacity="0.2" stroke="none" width="89.60000000000002" x="311" y="231"/></g><g transform="translate(-54,-22) scale(1,1)"><rect fill="#C0C0C0" height="73" opacity="0.2" stroke="none" width="224" x="311" y="245"/></g><g transform="translate(-54,-22) scale(1,1)"><rect fill="#ffffff" height="72" stroke="none" width="224" x="304" y="239"/></g><g transform="translate(-54,-22) scale(1,1)"><path d="M 304 239 L 528 239 L 528 311 L 304 311 L 304 239 Z Z" fill="none" stroke="#000000" stroke-miterlimit="10"/></g><g transform="translate(-54,-22) scale(1,1)"><rect fill="#ffffff" height="15" stroke="none" width="89.60000000000002" x="304" y="224"/></g><g transform="translate(-54,-22) scale(1,1)"><path d="M 304 224 L 393.6 224 L 393.6 239 L 304 239 L 304 224 Z Z" fill="none" stroke="#000000" stroke-miterlimit="10"/></g><g transform="translate(-54,-22) scale(1,1)"><rect fill="#ffffff" height="73" stroke="none" width="224" x="304" y="238"/></g><g transform="translate(-54,-22) scale(1,1)"><path d="M 304 238 L 528 238 L 528 311 L 304 311 L 304 238 Z Z" fill="none" stroke="#000000" stroke-miterlimit="10"/></g><g transform="translate(-54,-22) scale(1,1)"><g><path fill="none" stroke="none"/><text fill="#000000" font-family="Arial" font-size="16px" font-style="normal" font-weight="bold" stroke="none" text-decoration="none" x="374.1953125" y="261.5">Si autentica</text></g></g><g transform="translate(-54,-22) scale(1,1)"><path d="M 311 1142.5 C 311 1120.6847504 362.93496319999997 1103 427 1103 C 491.06503680000003 1103 543 1120.6847504 543 1142.5 C 543 1164.3152496 491.06503680000003 1182 427 1182 C 362.93496319999997 1182 311 1164.3152496 311 1142.5 Z" fill="#C0C0C0" opacity="0.2" stroke="none"/></g><g transform="translate(-54,-22) scale(1,1)"><path d="M 304 1135.5 C 304 1113.6847504 355.93496319999997 1096 420 1096 C 484.06503680000003 1096 536 1113.6847504 536 1135.5 C 536 1157.3152496 484.06503680000003 1175 420 1175 C 355.93496319999997 1175 304 1157.3152496 304 1135.5 Z" fill="#ffffff" stroke="none"/></g><g transform="translate(-54,-22) scale(1,1)"><path d="M 304 1135.5 C 304 1113.6847504 355.93496319999997 1096 420 1096 C 484.06503680000003 1096 536 1113.6847504 536 1135.5 C 536 1157.3152496 484.06503680000003 1175 420 1175 C 355.93496319999997 1175 304 1157.3152496 304 1135.5 Z" fill="none" stroke="#000000" stroke-miterlimit="10"/></g><g transform="translate(-54,-22) scale(1,1)"><g><path fill="none" stroke="none"/><text fill="#000000" font-family="Arial" font-size="16px" font-style="normal" font-weight="bold" stroke="none" text-decoration="none" x="363.0703125" y="1144">Esegue il logout</text></g></g><g transform="translate(-54,-22) scale(1,1)"><path d="M 165 825 L 387 1095" fill="none" stroke="#000000" stroke-miterlimit="10"/></g><g transform="translate(-54,-22) scale(1,1)"><path d="M 311 571 C 311 542.2811904 361.1441024 519 423 519 C 484.8558976 519 535 542.2811904 535 571 C 535 599.7188096 484.8558976 623 423 623 C 361.1441024 623 311 599.7188096 311 571 Z" fill="#C0C0C0" opacity="0.2" stroke="none"/></g><g transform="translate(-54,-22) scale(1,1)"><path d="M 304 564 C 304 535.2811904 354.1441024 512 416 512 C 477.8558976 512 528 535.2811904 528 564 C 528 592.7188096 477.8558976 616 416 616 C 354.1441024 616 304 592.7188096 304 564 Z" fill="#ffffff" stroke="none"/></g><g transform="translate(-54,-22) scale(1,1)"><path d="M 304 564 C 304 535.2811904 354.1441024 512 416 512 C 477.8558976 512 528 535.2811904 528 564 C 528 592.7188096 477.8558976 616 416 616 C 354.1441024 616 304 592.7188096 304 564 Z" fill="none" stroke="#000000" stroke-miterlimit="10"/></g><g transform="translate(-54,-22) scale(1,1)"><g><path fill="none" stroke="none"/><text fill="#000000" font-family="Arial" font-size="16px" font-style="normal" font-weight="bold" stroke="none" text-decoration="none" x="347.2265625" y="572.5">Visualizza itinerario</text></g></g><g transform="translate(-54,-22) scale(1,1)"><path d="M 187 731 L 343 617" fill="none" stroke="#000000" stroke-miterlimit="10"/></g></g></svg>